<svg width="40" height="40" viewBox="0 0 40 40" fill="none" xmlns="http://www.w3.org/2000/svg">
    <circle cx="20" cy="20" r="20" fill="#D9D9D9"></circle>
    <path d="M20 8C15.048 8 11 12.048 11 17C11 21.952 15.048 26 20 26C24.952 26 29 21.952 29 17C29 12.048 24.952 8 20 8Z" fill="#AFAFAF"></path>
    <path fill-rule="evenodd" clip-rule="evenodd" d="M35.4912 32.6513C31.8237 37.1369 26.2461 40 20 40C13.7583 40 8.18408 37.1408 4.5166 32.6606C4.66748 32.395 4.83203 32.1343 5.00586 31.8916C6.82959 29.2224 9.74805 27.456 12.9902 27.0241C13.2441 26.9751 13.5142 27.0029 13.7603 27.0886C13.9067 27.1396 14.0449 27.2112 14.166 27.299C15.8682 28.5158 17.895 29.1438 20.0024 29.1438C22.1104 29.1438 24.1367 28.5158 25.8394 27.299C26.1636 27.0634 26.6094 26.9851 27.0146 27.0241C30.2573 27.456 33.1348 29.2224 34.9995 31.8916C35.1743 32.1357 35.3398 32.3891 35.4912 32.6513Z" fill="#AFAFAF"></path>
</svg>